<svg width="17" height="17" viewBox="0 0 17 17" fill="none" xmlns="http://www.w3.org/2000/svg">
<path d="M10.8182 17H9.27273V15.4545H10.8182V17ZM13.9091 15.4545H12.3636V17H13.9091V15.4545ZM10.8182 12.3636H9.27273V13.9091H10.8182V12.3636ZM4.63636 15.4545H3.09091V17H4.63636V15.4545ZM4.63636 12.3636H3.09091V13.9091H4.63636V12.3636ZM13.9091 12.3636H12.3636V13.9091H13.9091V12.3636ZM10.8182 9.27273H9.27273V10.8182H10.8182V9.27273ZM13.9091 9.27273H12.3636V10.8182H13.9091V9.27273ZM15.4545 6.18182C15.8644 6.18182 16.2575 6.34464 16.5473 6.63447C16.8372 6.9243 17 7.31739 17 7.72727V17H15.4545V7.72727H7.72727V17H6.18182V10.8182H1.54545V17H0V10.8182C0 10.4083 0.162824 10.0152 0.452653 9.72538C0.742482 9.43555 1.13557 9.27273 1.54545 9.27273H6.18182V7.72727C6.18182 7.31739 6.34464 6.9243 6.63447 6.63447C6.9243 6.34464 7.31739 6.18182 7.72727 6.18182V4.63636C7.72727 4.22648 7.8901 3.83339 8.17993 3.54356C8.46976 3.25373 8.86285 3.09091 9.27273 3.09091H10.8182V0H12.3636V3.09091H13.9091C14.319 3.09091 14.7121 3.25373 15.0019 3.54356C15.2917 3.83339 15.4545 4.22648 15.4545 4.63636V6.18182ZM13.9091 6.18182V4.63636H9.27273V6.18182H13.9091Z" fill="#015EFF"/>
</svg>
