<svg width="24" height="29" viewBox="0 0 24 29" fill="none" xmlns="http://www.w3.org/2000/svg">
<path d="M22.9995 24.4998H0.999397C0.569395 24.4998 0.187394 24.2238 0.0513934 23.8158C-0.0846072 23.4078 0.0553934 22.9578 0.399395 22.6998L2.7994 20.8998C3.55141 20.3358 3.99941 19.4398 3.99941 18.4998V12.4998C3.99941 8.08777 7.58742 4.49976 11.9994 4.49976C16.4115 4.49976 19.9995 8.08777 19.9995 12.4998V18.4998C19.9995 19.4398 20.4495 20.3358 21.1995 20.8978L23.5995 22.6978C23.9455 22.9578 24.0835 23.4058 23.9495 23.8158C23.8115 24.2238 23.4295 24.4998 22.9995 24.4998ZM3.99941 22.4998H19.9995C18.7475 21.5598 17.9995 20.0638 17.9995 18.4998V12.4998C17.9995 9.19177 15.3075 6.49976 11.9994 6.49976C8.69143 6.49976 5.99942 9.19177 5.99942 12.4998V18.4998C5.99942 20.0638 5.25141 21.5598 3.99941 22.4998Z" fill="#fff"/>
<path d="M11.9994 28.5001C9.7934 28.5001 7.99939 26.7061 7.99939 24.5001C7.99939 24.0281 8.07939 23.5861 8.24339 23.1481C8.43739 22.6321 9.01339 22.3641 9.5314 22.5641C10.0474 22.7581 10.3094 23.3341 10.1154 23.8521C10.0354 24.0641 9.9994 24.2661 9.9994 24.5001C9.9994 25.6041 10.8974 26.5001 11.9994 26.5001C13.1034 26.5001 13.9994 25.6041 13.9994 24.5001C13.9994 24.2681 13.9634 24.0661 13.8814 23.8481C13.6894 23.3301 13.9514 22.7561 14.4714 22.5621C14.9874 22.3661 15.5634 22.6321 15.7574 23.1521C15.9194 23.5901 15.9994 24.0321 15.9994 24.5001C15.9994 26.7061 14.2054 28.5001 11.9994 28.5001Z" fill="#fff"/>
<path d="M13.9997 6.80003C13.4477 6.80003 12.9997 6.35202 12.9997 5.80002V3.50001C12.9997 2.94801 12.5496 2.50001 11.9996 2.50001C11.4476 2.50001 10.9996 2.94801 10.9996 3.50001V5.80002C10.9996 6.35202 10.5516 6.80003 9.99964 6.80003C9.44764 6.80003 8.99963 6.35202 8.99963 5.80002V3.50001C8.99963 1.84601 10.3456 0.5 11.9996 0.5C13.6537 0.5 14.9997 1.84601 14.9997 3.50001V5.80002C14.9997 6.35202 14.5517 6.80003 13.9997 6.80003Z" fill="#fff"/>
</svg>
