<svg width="25" height="25" viewBox="0 0 25 25" fill="none" xmlns="http://www.w3.org/2000/svg">
<path d="M0 3.0011H25V21.9988H0V3.0011Z" fill="#00CC76"/>
<path d="M12.5 3.0011H25V21.9988H12.5V3.0011Z" fill="#00AA63"/>
<path d="M12.5001 19.2829L4.34912 12.5L12.5001 5.71704L20.6511 12.5L12.5001 19.2829Z" fill="#FFDA44"/>
<path d="M20.651 12.5L12.5 5.71704V19.2829L20.651 12.5Z" fill="#EEBF00"/>
<path d="M12.5 15.7545C14.2974 15.7545 15.7545 14.2974 15.7545 12.5C15.7545 10.7027 14.2974 9.24561 12.5 9.24561C10.7027 9.24561 9.24561 10.7027 9.24561 12.5C9.24561 14.2974 10.7027 15.7545 12.5 15.7545Z" fill="#1C78BF"/>
<path d="M15.7545 12.5C15.7545 10.7026 14.2974 9.24548 12.5 9.24548V15.7544C14.2974 15.7544 15.7545 14.2974 15.7545 12.5Z" fill="#1865A1"/>
</svg>
