<svg width="27" height="27" viewBox="0 0 27 27" fill="none" xmlns="http://www.w3.org/2000/svg">
<path d="M25.4667 2.99175H20.0417V0.925081C20.0417 0.782998 19.9254 0.666748 19.7833 0.666748H17.975C17.8329 0.666748 17.7167 0.782998 17.7167 0.925081V2.99175H9.45V0.925081C9.45 0.782998 9.33375 0.666748 9.19166 0.666748H7.38333C7.24125 0.666748 7.125 0.782998 7.125 0.925081V2.99175H1.7C1.12843 2.99175 0.666664 3.45352 0.666664 4.02508V25.4667C0.666664 26.0383 1.12843 26.5001 1.7 26.5001H25.4667C26.0382 26.5001 26.5 26.0383 26.5 25.4667V4.02508C26.5 3.45352 26.0382 2.99175 25.4667 2.99175ZM24.175 24.1751H2.99166V11.9042H24.175V24.1751ZM2.99166 9.70841V5.31675H7.125V6.86675C7.125 7.00883 7.24125 7.12508 7.38333 7.12508H9.19166C9.33375 7.12508 9.45 7.00883 9.45 6.86675V5.31675H17.7167V6.86675C17.7167 7.00883 17.8329 7.12508 17.975 7.12508H19.7833C19.9254 7.12508 20.0417 7.00883 20.0417 6.86675V5.31675H24.175V9.70841H2.99166Z" fill="#015EFF"/>
</svg>
