<svg width="25" height="25" viewBox="0 0 25 25" fill="none" xmlns="http://www.w3.org/2000/svg">
<path d="M0 2.98926H25V21.987H0V2.98926Z" fill="#FFF5F5"/>
<path d="M12.5 2.98926H25V21.987H12.5V2.98926Z" fill="#EBE1DC"/>
<path d="M4.33022 3.01309V22.0108L0 21.987V2.98926L4.33022 3.01309Z" fill="#FF3939"/>
<path d="M20.6697 22.0108V3.01309L24.9999 2.98926V21.987L20.6697 22.0108Z" fill="#D20000"/>
<path d="M15.0313 14.0848L18.2239 12.6366L16.6116 9.08188L14.4516 10.0616V7.03174H10.5482V10.0616L8.38823 9.08188L6.77588 12.6366L9.96846 14.0848L9.37427 15.4314H11.7193V18.2291H13.2805V15.4314H15.6255L15.0313 14.0848Z" fill="#FF3939"/>
<path d="M15.0314 14.0848L18.224 12.6366L16.6117 9.08188L14.4517 10.0616V7.03174H12.5V14.9096V15.4314V18.2291H13.2806V15.4314H15.6256L15.0314 14.0848Z" fill="#D20000"/>
</svg>
