<svg width="15" height="15" viewBox="0 0 15 15" fill="none" xmlns="http://www.w3.org/2000/svg">
<path d="M13.75 0H3.75C3.08696 0 2.45107 0.263392 1.98223 0.732233C1.51339 1.20107 1.25 1.83696 1.25 2.5V3.125H0.625C0.45924 3.125 0.300269 3.19085 0.183058 3.30806C0.065848 3.42527 0 3.58424 0 3.75C0 3.91576 0.065848 4.07473 0.183058 4.19194C0.300269 4.30915 0.45924 4.375 0.625 4.375H1.25V6.875H0.625C0.45924 6.875 0.300269 6.94085 0.183058 7.05806C0.065848 7.17527 0 7.33424 0 7.5C0 7.66576 0.065848 7.82473 0.183058 7.94194C0.300269 8.05915 0.45924 8.125 0.625 8.125H1.25V10.625H0.625C0.45924 10.625 0.300269 10.6908 0.183058 10.8081C0.065848 10.9253 0 11.0842 0 11.25C0 11.4158 0.065848 11.5747 0.183058 11.6919C0.300269 11.8092 0.45924 11.875 0.625 11.875H1.25V12.5C1.25 13.163 1.51339 13.7989 1.98223 14.2678C2.45107 14.7366 3.08696 15 3.75 15H13.75C14.0815 15 14.3995 14.8683 14.6339 14.6339C14.8683 14.3995 15 14.0815 15 13.75V1.25C15 0.918479 14.8683 0.600537 14.6339 0.366117C14.3995 0.131696 14.0815 0 13.75 0ZM13.75 13.75H3.75C3.41848 13.75 3.10054 13.6183 2.86612 13.3839C2.6317 13.1495 2.5 12.8315 2.5 12.5V11.875H3.125C3.29076 11.875 3.44973 11.8092 3.56694 11.6919C3.68415 11.5747 3.75 11.4158 3.75 11.25C3.75 11.0842 3.68415 10.9253 3.56694 10.8081C3.44973 10.6908 3.29076 10.625 3.125 10.625H2.5V8.125H3.125C3.29076 8.125 3.44973 8.05915 3.56694 7.94194C3.68415 7.82473 3.75 7.66576 3.75 7.5C3.75 7.33424 3.68415 7.17527 3.56694 7.05806C3.44973 6.94085 3.29076 6.875 3.125 6.875H2.5V4.375H3.125C3.29076 4.375 3.44973 4.30915 3.56694 4.19194C3.68415 4.07473 3.75 3.91576 3.75 3.75C3.75 3.58424 3.68415 3.42527 3.56694 3.30806C3.44973 3.19085 3.29076 3.125 3.125 3.125H2.5V2.5C2.5 2.16848 2.6317 1.85054 2.86612 1.61612C3.10054 1.3817 3.41848 1.25 3.75 1.25H13.75V13.75Z" fill="#015EFF"/>
<path d="M5.625 11.875C5.79076 11.875 5.94973 11.8091 6.06694 11.6919C6.18415 11.5747 6.25 11.4157 6.25 11.25V10.625C6.25 9.96195 6.51339 9.32606 6.98223 8.85722C7.45107 8.38838 8.08696 8.12499 8.75 8.12499C9.41304 8.12499 10.0489 8.38838 10.5178 8.85722C10.9866 9.32606 11.25 9.96195 11.25 10.625V11.25C11.25 11.4157 11.3158 11.5747 11.4331 11.6919C11.5503 11.8091 11.7092 11.875 11.875 11.875C12.0408 11.875 12.1997 11.8091 12.3169 11.6919C12.4342 11.5747 12.5 11.4157 12.5 11.25V10.625C12.4992 9.95436 12.3187 9.2962 11.9771 8.71909C11.6355 8.14198 11.1454 7.66704 10.5578 7.34374C10.896 6.98971 11.1227 6.54419 11.21 6.06245C11.2972 5.58072 11.2411 5.08396 11.0486 4.63383C10.8561 4.1837 10.5356 3.8 10.127 3.53035C9.71838 3.26069 9.23957 3.11694 8.75 3.11694C8.26043 3.11694 7.78163 3.26069 7.37301 3.53035C6.96439 3.8 6.64394 4.1837 6.45142 4.63383C6.25889 5.08396 6.20277 5.58072 6.29002 6.06245C6.37726 6.54419 6.60403 6.98971 6.94219 7.34374C6.35463 7.66704 5.86453 8.14198 5.52293 8.71909C5.18134 9.2962 5.00075 9.95436 5 10.625V11.25C5 11.4157 5.06585 11.5747 5.18306 11.6919C5.30027 11.8091 5.45924 11.875 5.625 11.875ZM7.5 5.62499C7.5 5.37776 7.57331 5.13609 7.71066 4.93052C7.84801 4.72496 8.04324 4.56475 8.27165 4.47014C8.50005 4.37553 8.75139 4.35077 8.99386 4.399C9.23634 4.44724 9.45907 4.56629 9.63388 4.7411C9.8087 4.91592 9.92775 5.13865 9.97598 5.38112C10.0242 5.6236 9.99946 5.87493 9.90485 6.10334C9.81024 6.33175 9.65002 6.52697 9.44446 6.66432C9.2389 6.80168 8.99723 6.87499 8.75 6.87499C8.41848 6.87499 8.10054 6.74329 7.86612 6.50887C7.6317 6.27445 7.5 5.95651 7.5 5.62499Z" fill="#015EFF"/>
</svg>
