<svg width="122" height="122" viewBox="0 0 122 122" fill="none" xmlns="http://www.w3.org/2000/svg">
<path fill-rule="evenodd" clip-rule="evenodd" d="M42.3841 2.89306C48.2539 1.01404 54.5095 0 61 0C67.4905 0 73.7461 1.01404 79.616 2.89306C80.1419 3.06144 80.4318 3.62434 80.2635 4.15033C80.0951 4.67632 79.5322 4.96622 79.0062 4.79785C73.3311 2.98116 67.2811 2 61 2C54.7189 2 48.6689 2.98116 42.9938 4.79784C42.4678 4.96622 41.9049 4.67632 41.7365 4.15033C41.5682 3.62434 41.8581 3.06144 42.3841 2.89306ZM34.4227 7.18315C34.6759 7.67399 34.4832 8.27713 33.9924 8.5303C23.0846 14.1564 14.1564 23.0846 8.5303 33.9924C8.27713 34.4832 7.67399 34.6759 7.18315 34.4227C6.69231 34.1695 6.49964 33.5664 6.75281 33.0756C12.5694 21.7985 21.7985 12.5694 33.0756 6.75281C33.5664 6.49964 34.1695 6.69231 34.4227 7.18315ZM87.5773 7.18315C87.8305 6.69231 88.4336 6.49964 88.9244 6.75281C100.202 12.5694 109.431 21.7985 115.247 33.0756C115.5 33.5664 115.308 34.1695 114.817 34.4227C114.326 34.6759 113.723 34.4832 113.47 33.9924C107.844 23.0846 98.9154 14.1564 88.0076 8.5303C87.5168 8.27713 87.3241 7.67399 87.5773 7.18315ZM4.15033 41.7365C4.67632 41.9049 4.96622 42.4678 4.79785 42.9938C2.98116 48.6689 2 54.7189 2 61C2 67.2811 2.98116 73.3311 4.79784 79.0062C4.96622 79.5322 4.67632 80.0951 4.15033 80.2635C3.62434 80.4318 3.06144 80.1419 2.89306 79.6159C1.01404 73.7461 0 67.4905 0 61C0 54.5095 1.01404 48.2539 2.89306 42.3841C3.06144 41.8581 3.62434 41.5682 4.15033 41.7365ZM117.85 41.7365C118.376 41.5682 118.939 41.8581 119.107 42.3841C120.986 48.2539 122 54.5095 122 61C122 67.4905 120.986 73.7461 119.107 79.616C118.939 80.1419 118.376 80.4318 117.85 80.2635C117.324 80.0951 117.034 79.5322 117.202 79.0062C119.019 73.3311 120 67.2811 120 61C120 54.7189 119.019 48.6689 117.202 42.9938C117.034 42.4678 117.324 41.9049 117.85 41.7365ZM7.18315 87.5773C7.67399 87.3241 8.27713 87.5168 8.5303 88.0076C14.1564 98.9154 23.0846 107.844 33.9924 113.47C34.4832 113.723 34.6759 114.326 34.4227 114.817C34.1695 115.308 33.5664 115.5 33.0756 115.247C21.7985 109.431 12.5694 100.202 6.75281 88.9244C6.49964 88.4336 6.69231 87.8305 7.18315 87.5773ZM114.817 87.5773C115.308 87.8305 115.5 88.4336 115.247 88.9244C109.431 100.202 100.202 109.431 88.9244 115.247C88.4336 115.5 87.8305 115.308 87.5773 114.817C87.3241 114.326 87.5168 113.723 88.0076 113.47C98.9154 107.844 107.844 98.9154 113.47 88.0076C113.723 87.5168 114.326 87.3241 114.817 87.5773ZM41.7365 117.85C41.9049 117.324 42.4678 117.034 42.9938 117.202C48.6689 119.019 54.7189 120 61 120C67.2811 120 73.3311 119.019 79.0062 117.202C79.5322 117.034 80.0951 117.324 80.2635 117.85C80.4318 118.376 80.1419 118.939 79.6159 119.107C73.7461 120.986 67.4905 122 61 122C54.5095 122 48.2539 120.986 42.3841 119.107C41.8581 118.939 41.5682 118.376 41.7365 117.85Z" fill="#7DB1FF" fill-opacity="0.5"/>
</svg>
