<svg width="83" height="118" viewBox="0 0 83 118" fill="none" xmlns="http://www.w3.org/2000/svg">
<path d="M20.9998 0.5C14.4569 0.5 8.14995 1.52225 2.23143 3.41686C1.44244 3.66943 1.00759 4.51378 1.26016 5.30276C1.51272 6.09175 2.35707 6.52661 3.14606 6.27404C8.77246 4.47294 14.7711 3.5 20.9998 3.5C27.2286 3.5 33.2272 4.47294 38.8536 6.27404C39.6426 6.52661 40.4869 6.09175 40.7395 5.30277C40.992 4.51378 40.5572 3.66943 39.7682 3.41687C33.8497 1.52226 27.5427 0.5 20.9998 0.5ZM49.1535 7.30844C48.4172 6.92868 47.5125 7.21769 47.1327 7.95395C46.753 8.69021 47.042 9.59492 47.7782 9.97467C58.5937 15.5531 67.4467 24.4061 73.0251 35.2216C73.4049 35.9578 74.3096 36.2468 75.0459 35.8671C75.7821 35.4873 76.0711 34.5826 75.6914 33.8464C69.8272 22.4769 60.5229 13.1726 49.1535 7.30844ZM79.5829 43.2316C79.3304 42.4426 78.486 42.0078 77.697 42.2603C76.9081 42.5129 76.4732 43.3573 76.7258 44.1462C78.5269 49.7726 79.4998 55.7713 79.4998 62C79.4998 68.2288 78.5269 74.2274 76.7258 79.8538C76.4732 80.6427 76.9081 81.4871 77.697 81.7397C78.486 81.9922 79.3304 81.5574 79.5829 80.7684C81.4776 74.8499 82.4998 68.5429 82.4998 62C82.4998 55.4571 81.4776 49.1501 79.5829 43.2316ZM75.6914 90.1536C76.0711 89.4174 75.7821 88.5127 75.0459 88.1329C74.3096 87.7532 73.4049 88.0422 73.0251 88.7784C67.4467 99.5938 58.5937 108.447 47.7782 114.025C47.042 114.405 46.753 115.31 47.1327 116.046C47.5125 116.782 48.4172 117.071 49.1535 116.692C60.5229 110.827 69.8272 101.523 75.6914 90.1536Z" fill="white" stroke="white" stroke-linecap="round"/>
</svg>
