<svg width="13" height="15" viewBox="0 0 13 15" fill="none" xmlns="http://www.w3.org/2000/svg">
<g clip-path="url(#clip0)">
<path d="M1.00245 14.375C0.589826 14.375 0.274292 14.0776 0.274292 13.6886V1.31136C0.274292 0.922421 0.589826 0.625 1.00245 0.625C1.41507 0.625 1.7306 0.922421 1.7306 1.31136V13.6886C1.7306 14.0776 1.3908 14.375 1.00245 14.375Z" fill="#015EFF"/>
<path d="M12.0214 10.9886C11.9729 10.9886 11.9001 10.9886 11.8515 10.9657L7.38551 10.0048C6.73017 9.86755 6.22046 9.3871 6.02629 8.79226L5.78357 7.99151C5.73503 7.80848 5.56512 7.64833 5.34668 7.62545L0.856386 6.87046C0.468036 6.80183 0.201046 6.43577 0.249589 6.04684C0.298133 5.6579 0.710754 5.40624 1.0991 5.47487L5.61367 6.20698C6.39037 6.34426 7.02144 6.87046 7.21561 7.5797L7.45833 8.38045C7.4826 8.49484 7.57969 8.58635 7.70105 8.60923L11.2447 9.3871V5.95532L7.36124 5.10882C6.7059 4.97154 6.19619 4.4911 6.00202 3.89625L5.7593 3.0955C5.71076 2.91248 5.54085 2.75233 5.32241 2.72945L0.856386 2.02021C0.468036 1.95158 0.201046 1.58552 0.249589 1.19659C0.298133 0.807651 0.710754 0.578866 1.12338 0.624623L5.63794 1.35674C6.41464 1.49401 7.04571 2.02021 7.23988 2.72945L7.4826 3.5302C7.50687 3.64459 7.60396 3.7361 7.72532 3.75898L12.1671 4.74276C12.5069 4.81139 12.7496 5.10882 12.7496 5.42912V10.2794C12.7496 10.4853 12.6525 10.6912 12.4583 10.8284C12.337 10.9428 12.1671 10.9886 12.0214 10.9886Z" fill="#015EFF"/>
</g>
<defs>
<clipPath id="clip0">
<rect width="12.5" height="13.75" fill="white" transform="translate(0.25 0.625)"/>
</clipPath>
</defs>
</svg>
