<svg width="20" height="20" viewBox="0 0 20 20" fill="none" xmlns="http://www.w3.org/2000/svg">
<mask id="path-1-inside-1" fill="white">
<path d="M10.4888 19.1666H9.48047C8.38047 19.1666 7.46381 18.25 7.46381 17.15V16.0805L6.69992 16.8444C5.90547 17.6389 4.62214 17.6389 3.85825 16.8444L3.15547 16.1111C2.36103 15.3166 2.36103 14.0333 3.15547 13.2694L3.91936 12.5055H2.84992C1.74992 12.5055 0.833252 11.5889 0.833252 10.4889V9.48053C0.833252 8.38053 1.74992 7.46387 2.84992 7.46387H3.91936L3.15547 6.69998C2.36103 5.90553 2.36103 4.6222 3.15547 3.85831L3.85825 3.15553C4.6527 2.36109 5.93603 2.36109 6.69992 3.15553L7.46381 3.91942V2.84998C7.46381 1.74998 8.38047 0.833313 9.48047 0.833313H10.4888C11.5888 0.833313 12.5055 1.74998 12.5055 2.84998V3.91942L13.2694 3.15553C14.0638 2.36109 15.3471 2.36109 16.111 3.15553L16.8138 3.85831C17.6082 4.65276 17.6082 5.93609 16.8138 6.69998L16.0499 7.46387H17.1194C18.2194 7.46387 19.136 8.38053 19.136 9.48053V10.4889C19.136 11.5889 18.2194 12.5055 17.1194 12.5055H16.0499L16.8138 13.2694C17.6082 14.0639 17.6082 15.3472 16.8138 16.1111L16.111 16.8139C15.3166 17.6083 14.0333 17.6083 13.2694 16.8139L12.5055 16.05V17.1194C12.5055 18.25 11.6194 19.1666 10.4888 19.1666ZM7.58603 14.0944C7.79992 14.0944 8.04436 14.125 8.25825 14.2166C8.89992 14.4916 9.32769 15.1028 9.32769 15.8055V17.1194C9.32769 17.2111 9.41936 17.3028 9.51103 17.3028H10.5194C10.611 17.3028 10.7027 17.2111 10.7027 17.1194V15.8055C10.7027 15.1028 11.1305 14.4611 11.7721 14.2166C12.4138 13.9416 13.1777 14.0944 13.6666 14.5833L14.5833 15.5C14.6749 15.5916 14.7666 15.5916 14.8277 15.5L15.5305 14.7972C15.561 14.7666 15.5916 14.7055 15.5916 14.675C15.5916 14.6444 15.5916 14.5833 15.5305 14.5528L14.6138 13.6361C14.1249 13.1472 13.9721 12.3833 14.2471 11.7416C14.5221 11.1 15.1333 10.6722 15.836 10.6722H17.1499C17.2416 10.6722 17.3333 10.5805 17.3333 10.4889V9.48053C17.3333 9.38887 17.2416 9.2972 17.1499 9.2972H15.836C15.1333 9.2972 14.4916 8.86942 14.2471 8.22776C14.0027 7.58609 14.1249 6.8222 14.6138 6.33331L15.5305 5.41665C15.561 5.38609 15.5916 5.32498 15.5916 5.29442C15.5916 5.26387 15.5916 5.20276 15.5305 5.1722L14.8277 4.46942C14.736 4.37776 14.6444 4.37776 14.5833 4.46942L13.6666 5.38609C13.1777 5.87498 12.4138 6.02776 11.7721 5.75276C11.1305 5.47776 10.7027 4.86665 10.7027 4.16387V2.84998C10.7027 2.75831 10.611 2.66665 10.5194 2.66665H9.51103C9.41936 2.66665 9.32769 2.75831 9.32769 2.84998V4.16387C9.32769 4.86665 8.89992 5.50831 8.25825 5.75276C7.61658 6.02776 6.8527 5.87498 6.36381 5.38609L5.44714 4.46942C5.35547 4.37776 5.26381 4.37776 5.2027 4.46942L4.49992 5.1722C4.46936 5.20276 4.43881 5.26387 4.43881 5.29442C4.43881 5.32498 4.43881 5.38609 4.49992 5.41665L5.41658 6.33331C5.90547 6.8222 6.05825 7.58609 5.78325 8.22776C5.50825 8.86942 4.89714 9.2972 4.19436 9.2972H2.84992C2.75825 9.32776 2.66659 9.38887 2.66659 9.48053V10.4889C2.66659 10.5805 2.75825 10.6722 2.84992 10.6722H4.16381C4.86658 10.6722 5.50825 11.1 5.7527 11.7416C5.99714 12.3833 5.87492 13.1472 5.38603 13.6361L4.46936 14.5528C4.43881 14.5833 4.40825 14.6444 4.40825 14.675C4.40825 14.7055 4.40825 14.7666 4.46936 14.7972L5.17214 15.5C5.26381 15.5916 5.35547 15.5916 5.41658 15.5L6.33325 14.5833C6.69992 14.2778 7.1277 14.0944 7.58603 14.0944Z"/>
</mask>
<path d="M10.4888 19.1666H9.48047C8.38047 19.1666 7.46381 18.25 7.46381 17.15V16.0805L6.69992 16.8444C5.90547 17.6389 4.62214 17.6389 3.85825 16.8444L3.15547 16.1111C2.36103 15.3166 2.36103 14.0333 3.15547 13.2694L3.91936 12.5055H2.84992C1.74992 12.5055 0.833252 11.5889 0.833252 10.4889V9.48053C0.833252 8.38053 1.74992 7.46387 2.84992 7.46387H3.91936L3.15547 6.69998C2.36103 5.90553 2.36103 4.6222 3.15547 3.85831L3.85825 3.15553C4.6527 2.36109 5.93603 2.36109 6.69992 3.15553L7.46381 3.91942V2.84998C7.46381 1.74998 8.38047 0.833313 9.48047 0.833313H10.4888C11.5888 0.833313 12.5055 1.74998 12.5055 2.84998V3.91942L13.2694 3.15553C14.0638 2.36109 15.3471 2.36109 16.111 3.15553L16.8138 3.85831C17.6082 4.65276 17.6082 5.93609 16.8138 6.69998L16.0499 7.46387H17.1194C18.2194 7.46387 19.136 8.38053 19.136 9.48053V10.4889C19.136 11.5889 18.2194 12.5055 17.1194 12.5055H16.0499L16.8138 13.2694C17.6082 14.0639 17.6082 15.3472 16.8138 16.1111L16.111 16.8139C15.3166 17.6083 14.0333 17.6083 13.2694 16.8139L12.5055 16.05V17.1194C12.5055 18.25 11.6194 19.1666 10.4888 19.1666ZM7.58603 14.0944C7.79992 14.0944 8.04436 14.125 8.25825 14.2166C8.89992 14.4916 9.32769 15.1028 9.32769 15.8055V17.1194C9.32769 17.2111 9.41936 17.3028 9.51103 17.3028H10.5194C10.611 17.3028 10.7027 17.2111 10.7027 17.1194V15.8055C10.7027 15.1028 11.1305 14.4611 11.7721 14.2166C12.4138 13.9416 13.1777 14.0944 13.6666 14.5833L14.5833 15.5C14.6749 15.5916 14.7666 15.5916 14.8277 15.5L15.5305 14.7972C15.561 14.7666 15.5916 14.7055 15.5916 14.675C15.5916 14.6444 15.5916 14.5833 15.5305 14.5528L14.6138 13.6361C14.1249 13.1472 13.9721 12.3833 14.2471 11.7416C14.5221 11.1 15.1333 10.6722 15.836 10.6722H17.1499C17.2416 10.6722 17.3333 10.5805 17.3333 10.4889V9.48053C17.3333 9.38887 17.2416 9.2972 17.1499 9.2972H15.836C15.1333 9.2972 14.4916 8.86942 14.2471 8.22776C14.0027 7.58609 14.1249 6.8222 14.6138 6.33331L15.5305 5.41665C15.561 5.38609 15.5916 5.32498 15.5916 5.29442C15.5916 5.26387 15.5916 5.20276 15.5305 5.1722L14.8277 4.46942C14.736 4.37776 14.6444 4.37776 14.5833 4.46942L13.6666 5.38609C13.1777 5.87498 12.4138 6.02776 11.7721 5.75276C11.1305 5.47776 10.7027 4.86665 10.7027 4.16387V2.84998C10.7027 2.75831 10.611 2.66665 10.5194 2.66665H9.51103C9.41936 2.66665 9.32769 2.75831 9.32769 2.84998V4.16387C9.32769 4.86665 8.89992 5.50831 8.25825 5.75276C7.61658 6.02776 6.8527 5.87498 6.36381 5.38609L5.44714 4.46942C5.35547 4.37776 5.26381 4.37776 5.2027 4.46942L4.49992 5.1722C4.46936 5.20276 4.43881 5.26387 4.43881 5.29442C4.43881 5.32498 4.43881 5.38609 4.49992 5.41665L5.41658 6.33331C5.90547 6.8222 6.05825 7.58609 5.78325 8.22776C5.50825 8.86942 4.89714 9.2972 4.19436 9.2972H2.84992C2.75825 9.32776 2.66659 9.38887 2.66659 9.48053V10.4889C2.66659 10.5805 2.75825 10.6722 2.84992 10.6722H4.16381C4.86658 10.6722 5.50825 11.1 5.7527 11.7416C5.99714 12.3833 5.87492 13.1472 5.38603 13.6361L4.46936 14.5528C4.43881 14.5833 4.40825 14.6444 4.40825 14.675C4.40825 14.7055 4.40825 14.7666 4.46936 14.7972L5.17214 15.5C5.26381 15.5916 5.35547 15.5916 5.41658 15.5L6.33325 14.5833C6.69992 14.2778 7.1277 14.0944 7.58603 14.0944Z" fill="#015EFF" stroke="#EBF2FF" stroke-width="0.4" mask="url(#path-1-inside-1)"/>
<path d="M10 13.4444C8.09968 13.4444 6.55557 11.9003 6.55557 9.99993C6.55557 8.09848 8.1008 6.52493 10 6.52493C11.8992 6.52493 13.4445 8.09848 13.4445 9.99993C13.4445 11.9003 11.9003 13.4444 10 13.4444ZM10 8.06659C8.93645 8.06659 8.06668 8.93636 8.06668 9.99993C8.06668 11.0635 8.93645 11.9333 10 11.9333C11.0636 11.9333 11.9333 11.0635 11.9333 9.99993C11.9333 8.93636 11.0636 8.06659 10 8.06659Z" fill="#015EFF" stroke="#EBF2FF" stroke-width="0.2"/>
</svg>
