<svg width="18" height="16" viewBox="0 0 18 16" fill="none" xmlns="http://www.w3.org/2000/svg">
<path d="M14.1548 16H8.00063C7.66092 16 7.38522 15.7243 7.38522 15.3846V11.0767H6.15439V15.3846C6.15439 15.7243 5.87868 16 5.53897 16H3.07732C2.73761 16 2.4619 15.7243 2.4619 15.3846V8.61503H0.615662C0.362111 8.61503 0.134408 8.45995 0.0420958 8.22363C-0.0502163 7.98731 0.0125559 7.71899 0.198411 7.5479L8.19879 0.162931C8.43511 -0.0549254 8.79821 -0.0536946 9.0333 0.162931L17.0337 7.5479C17.2195 7.72022 17.2823 7.98731 17.19 8.22363C17.0977 8.45995 16.87 8.61503 16.6164 8.61503H14.7702V15.3846C14.7702 15.7243 14.4945 16 14.1548 16ZM8.61605 14.7692H13.5394V7.99962C13.5394 7.65991 13.8151 7.3842 14.1548 7.3842H15.0422L8.61605 1.45284L2.18989 7.3842H3.07732C3.41703 7.3842 3.69273 7.65991 3.69273 7.99962V14.7692H4.92356V10.4613C4.92356 10.1216 5.19927 9.84586 5.53897 9.84586H8.00063C8.34034 9.84586 8.61605 10.1216 8.61605 10.4613V14.7692Z" fill="#015EFF"/>
</svg>
