<svg width="12" height="16" viewBox="0 0 12 16" fill="none" xmlns="http://www.w3.org/2000/svg">
<path d="M10.8571 1.14286H0.571429C0.256 1.14286 0 0.886857 0 0.571429C0 0.256 0.256 0 0.571429 0H10.8571C11.1726 0 11.4286 0.256 11.4286 0.571429C11.4286 0.886857 11.1726 1.14286 10.8571 1.14286Z" fill="#015EFF"/>
<path d="M10.8571 16H0.571429C0.256 16 0 15.744 0 15.4286C0 15.1132 0.256 14.8572 0.571429 14.8572H10.8571C11.1726 14.8572 11.4286 15.1132 11.4286 15.4286C11.4286 15.744 11.1726 16 10.8571 16Z" fill="#015EFF"/>
<path d="M1.71425 16C1.39882 16 1.14282 15.744 1.14282 15.4286V11.2583C1.14282 10.8709 1.27654 10.4903 1.51882 10.1863L3.26854 8L1.51882 5.81257C1.27654 5.50971 1.14282 5.12914 1.14282 4.74171V0.571429C1.14282 0.256 1.39882 0 1.71425 0C2.02968 0 2.28568 0.256 2.28568 0.571429V4.74171C2.28568 4.87086 2.33025 4.99771 2.41139 5.09943L4.44682 7.64343C4.61368 7.85257 4.61368 8.14857 4.44682 8.35771L2.41139 10.9006C2.33025 11.0011 2.28568 11.128 2.28568 11.2583V15.4286C2.28568 15.744 2.02968 16 1.71425 16Z" fill="#015EFF"/>
<path d="M9.71416 16C9.39873 16 9.14273 15.744 9.14273 15.4286V11.2583C9.14273 11.1291 9.09816 11.0011 9.01816 10.9006L6.98159 8.35657C6.81473 8.14743 6.81473 7.85143 6.98159 7.64229L9.01702 5.09829C9.09816 4.99886 9.14273 4.87086 9.14273 4.74171V0.571429C9.14273 0.256 9.39873 0 9.71416 0C10.0296 0 10.2856 0.256 10.2856 0.571429V4.74171C10.2856 5.12914 10.153 5.50857 9.91073 5.81257L8.16102 8L9.91073 10.1863C10.153 10.4914 10.2856 10.8709 10.2856 11.2583V15.4286C10.2856 15.744 10.0296 16 9.71416 16Z" fill="#015EFF"/>
<path d="M7.42847 13.7143H3.9999C3.68447 13.7143 3.42847 13.4583 3.42847 13.1428V12C3.42847 11.8765 3.46847 11.7554 3.54275 11.6571L5.25704 9.3714C5.4719 9.0834 5.95532 9.0834 6.17132 9.3714L7.88561 11.6571C7.95875 11.7554 7.9999 11.8754 7.9999 12V13.1428C7.9999 13.4583 7.7439 13.7143 7.42847 13.7143ZM4.57132 12.5714H6.85704V12.1908L5.71418 10.6663L4.57132 12.1908V12.5714Z" fill="#015EFF"/>
</svg>
