<svg width="20" height="28" viewBox="0 0 20 28" fill="none" xmlns="http://www.w3.org/2000/svg">
<path d="M18.0952 2.57151H0.952381C0.426667 2.57151 0 2.14484 0 1.61913C0 1.09341 0.426667 0.666748 0.952381 0.666748H18.0952C18.621 0.666748 19.0476 1.09341 19.0476 1.61913C19.0476 2.14484 18.621 2.57151 18.0952 2.57151Z" fill="#015EFF"/>
<path d="M18.0952 27.3333H0.952381C0.426667 27.3333 0 26.9067 0 26.381C0 25.8553 0.426667 25.4286 0.952381 25.4286H18.0952C18.621 25.4286 19.0476 25.8553 19.0476 26.381C19.0476 26.9067 18.621 27.3333 18.0952 27.3333Z" fill="#015EFF"/>
<path d="M2.85714 27.3334C2.33142 27.3334 1.90475 26.9067 1.90475 26.381V19.4306C1.90475 18.7848 2.12761 18.1506 2.53142 17.6439L5.44761 14.0001L2.53142 10.3544C2.12761 9.8496 1.90475 9.21532 1.90475 8.5696V1.61913C1.90475 1.09341 2.33142 0.666748 2.85714 0.666748C3.38285 0.666748 3.80952 1.09341 3.80952 1.61913V8.5696C3.80952 8.78484 3.8838 8.99627 4.01904 9.16579L7.41142 13.4058C7.68952 13.7544 7.68952 14.2477 7.41142 14.5963L4.01904 18.8344C3.8838 19.002 3.80952 19.2134 3.80952 19.4306V26.381C3.80952 26.9067 3.38285 27.3334 2.85714 27.3334Z" fill="#015EFF"/>
<path d="M16.1905 27.3334C15.6648 27.3334 15.2381 26.9067 15.2381 26.381V19.4306C15.2381 19.2153 15.1638 19.002 15.0305 18.8344L11.6362 14.5944C11.3581 14.2458 11.3581 13.7525 11.6362 13.4039L15.0286 9.16389C15.1638 8.99818 15.2381 8.78484 15.2381 8.5696V1.61913C15.2381 1.09341 15.6648 0.666748 16.1905 0.666748C16.7162 0.666748 17.1428 1.09341 17.1428 1.61913V8.5696C17.1428 9.21532 16.9219 9.8477 16.5181 10.3544L13.6019 14.0001L16.5181 17.6439C16.9219 18.1525 17.1428 18.7848 17.1428 19.4306V26.381C17.1428 26.9067 16.7162 27.3334 16.1905 27.3334Z" fill="#015EFF"/>
<path d="M12.3809 23.5239H6.66666C6.14095 23.5239 5.71428 23.0972 5.71428 22.5715V20.6667C5.71428 20.461 5.78095 20.2591 5.90476 20.0953L8.7619 16.2858C9.11999 15.8058 9.92571 15.8058 10.2857 16.2858L13.1428 20.0953C13.2648 20.2591 13.3333 20.4591 13.3333 20.6667V22.5715C13.3333 23.0972 12.9067 23.5239 12.3809 23.5239ZM7.61904 21.6191H11.4286V20.9848L9.5238 18.4439L7.61904 20.9848V21.6191Z" fill="#015EFF"/>
</svg>
