<svg width="19" height="18" viewBox="0 0 19 18" fill="none" xmlns="http://www.w3.org/2000/svg">
<path d="M12.2142 7.89347e-05C10.6798 7.89347e-05 9.20816 0.609641 8.12313 1.69467C7.03811 2.7797 6.42854 4.25131 6.42854 5.78577C6.42798 6.35442 6.51249 6.91996 6.67926 7.46362L0 14.1429V18H3.85713L10.5364 11.3207C11.3634 11.5745 12.2369 11.6396 13.0924 11.5111C13.9479 11.3827 14.7638 11.0641 15.4799 10.5787C16.196 10.0932 16.7941 9.45342 17.2302 8.70628C17.6663 7.95914 17.9294 7.12371 17.9999 6.26148C18.1297 4.88934 17.7524 3.51719 16.9392 2.40435C16.4003 1.65604 15.6902 1.04741 14.8683 0.629181C14.0464 0.210956 13.1364 -0.00473781 12.2142 7.89347e-05ZM12.2142 10.2857C11.7786 10.284 11.3455 10.2191 10.9285 10.0929L10.1892 9.86789L9.64282 10.4143L7.59854 12.4586L6.69211 11.5715L5.78569 12.4779L6.67283 13.365L5.65069 14.3872L4.76355 13.5L3.85713 14.4064L4.74427 15.2936L3.32356 16.7143H1.28571V14.6764L7.58568 8.35719L8.13211 7.81076L7.94568 7.20005C7.62213 6.18262 7.66338 5.08423 8.06231 4.09394C8.46124 3.10364 9.19291 2.28339 10.1314 1.77436C10.8074 1.42094 11.5622 1.2452 12.3249 1.26363C13.0875 1.28206 13.8329 1.49406 14.4911 1.87971C15.1493 2.26537 15.6986 2.81202 16.0875 3.4683C16.4764 4.12458 16.692 4.86896 16.7142 5.63148C16.7588 6.5412 16.5135 7.44158 16.0135 8.2029C15.6067 8.84175 15.0452 9.36759 14.381 9.73168C13.7169 10.0958 12.9716 10.2863 12.2142 10.2857Z" fill="#015EFF"/>
<path d="M12.8571 6.42866C13.5672 6.42866 14.1428 5.85302 14.1428 5.14295C14.1428 4.43287 13.5672 3.85724 12.8571 3.85724C12.147 3.85724 11.5714 4.43287 11.5714 5.14295C11.5714 5.85302 12.147 6.42866 12.8571 6.42866Z" fill="#015EFF"/>
</svg>
