<svg width="14" height="18" viewBox="0 0 14 18" fill="none" xmlns="http://www.w3.org/2000/svg">
<path d="M6.54889 4.14232C6.07222 4.14232 5.60625 4.28367 5.20992 4.54849C4.81358 4.81331 4.50467 5.18972 4.32226 5.6301C4.13985 6.07049 4.09212 6.55507 4.18511 7.02258C4.27811 7.49009 4.50764 7.91953 4.8447 8.25659C5.18176 8.59364 5.61119 8.82318 6.0787 8.91617C6.54621 9.00917 7.0308 8.96144 7.47118 8.77903C7.91157 8.59661 8.28797 8.28771 8.5528 7.89137C8.81762 7.49504 8.95897 7.02907 8.95897 6.5524C8.95824 5.91343 8.70409 5.30084 8.25227 4.84902C7.80045 4.3972 7.18786 4.14305 6.54889 4.14232ZM6.54889 7.75744C6.31055 7.75744 6.07757 7.68677 5.8794 7.55436C5.68123 7.42194 5.52678 7.23374 5.43557 7.01355C5.34437 6.79336 5.3205 6.55106 5.367 6.31731C5.41349 6.08355 5.52826 5.86884 5.69679 5.70031C5.86532 5.53178 6.08004 5.41701 6.31379 5.37051C6.54755 5.32402 6.78984 5.34788 7.01003 5.43909C7.23023 5.5303 7.41843 5.68475 7.55084 5.88292C7.68325 6.08108 7.75393 6.31407 7.75393 6.5524C7.75356 6.87188 7.62648 7.17818 7.40057 7.40409C7.17466 7.63 6.86837 7.75707 6.54889 7.75744Z" fill="#015EFF"/>
<path d="M11.1801 1.91772C10.035 0.772942 8.5065 0.0929004 6.88952 0.00883881C5.27255 -0.0752228 3.68175 0.442655 2.42415 1.46252C1.16655 2.48239 0.331311 3.93194 0.0796267 5.53142C-0.172058 7.1309 0.177657 8.76691 1.06128 10.1237L5.61434 17.1134C5.71566 17.269 5.8542 17.3968 6.01739 17.4852C6.18059 17.5737 6.36328 17.62 6.5489 17.62C6.73453 17.62 6.91722 17.5737 7.08041 17.4852C7.24361 17.3968 7.38215 17.269 7.48347 17.1134L12.0367 10.1237C12.8566 8.86508 13.2189 7.36288 13.063 5.86887C12.907 4.37487 12.2422 2.97988 11.1801 1.91772ZM11.027 9.46595L6.54892 16.3403L2.0708 9.46595C0.700065 7.36168 0.994058 4.54565 2.76984 2.76979C3.26611 2.27351 3.85527 1.87983 4.50369 1.61124C5.15211 1.34265 5.84708 1.20441 6.54892 1.20441C7.25077 1.20441 7.94574 1.34265 8.59415 1.61124C9.24257 1.87983 9.83173 2.27351 10.328 2.76979C12.1038 4.54565 12.3977 7.36168 11.027 9.46595Z" fill="#015EFF"/>
</svg>
