<svg width="177" height="30" viewBox="0 0 177 30" fill="none" xmlns="http://www.w3.org/2000/svg">
<path d="M8.83221 22.561C7.23847 22.8715 5.86801 22.2812 5.86801 21.2346V8.92455V8.00165L2.9642 7.43622C1.37045 7.12571 0 7.71607 0 8.76259V28.591C0 29.6375 1.37045 30.2279 2.9642 29.9173L22.4351 26.128C23.105 25.9977 23.635 25.3709 23.635 24.7317V19.6792L23.4749 19.7099L8.83221 22.561Z" fill="#0E073D"/>
<path d="M28.3079 3.87205L8.837 0.0827049C7.24325 -0.227803 5.8728 0.362542 5.8728 1.40907V8.00448L6.03285 8.03514L22.4399 11.2284C23.1098 11.3587 23.6398 11.9855 23.6398 12.6247V18.8214V19.682L28.3079 18.7735C28.9778 18.6432 29.5078 18.0164 29.5078 17.3772V5.26741C29.5078 4.62819 28.9769 4.00143 28.3079 3.87205Z" fill="#0088FE"/>
<path d="M23.6398 12.6246C23.6398 11.9854 23.1088 11.3586 22.4399 11.2283L6.03285 8.03506L5.8728 8.00439V8.92729V21.2374C5.8728 22.2839 7.24325 22.8742 8.837 22.5637L23.4797 19.7136L23.6398 19.6829V18.8223V12.6246Z" fill="#3D00FC"/>
<path d="M51.6123 14.0603C53.0613 13.3243 53.9449 12.0229 53.9449 10.3036C53.9449 7.92207 52.3244 5.78589 48.2983 5.78589H40.3928V23.2673H48.5686C52.6933 23.2673 54.658 21.2538 54.658 18.2589C54.657 16.5156 53.6747 14.8213 51.6123 14.0603ZM43.7059 8.51146H48.052C49.7703 8.51146 50.6549 9.41998 50.6549 10.7214C50.6549 12.1705 49.7713 13.078 48.052 13.078H43.7059V8.51146ZM48.3961 20.5177H43.7068V15.6809H48.3961C50.1882 15.6809 51.2683 16.4668 51.2683 18.1113C51.2683 19.6341 50.262 20.5177 48.3961 20.5177Z" fill="black"/>
<path d="M62.1447 10.3035C58.388 10.3035 55.8838 12.9552 55.8838 16.9324C55.8838 20.9834 58.4618 23.5614 62.1936 23.5614C65.2383 23.5614 67.4483 21.9159 68.0865 19.3379H65.1156C64.6489 20.4668 63.6915 21.1549 62.2185 21.1549C60.4264 21.1549 59.1499 20.1487 58.9285 17.8898H68.4057V17.1528C68.4057 13.1277 66.0242 10.3035 62.1447 10.3035ZM58.9534 15.7297C59.2476 13.6424 60.4753 12.7099 62.1208 12.7099C63.9618 12.7099 65.0668 13.9376 65.3121 15.7297H58.9534Z" fill="black"/>
<path d="M78.1041 10.5986L76.8765 13.9874C76.2133 16.0986 75.5262 18.3335 74.8879 20.4697C74.2496 18.3584 73.5625 16.0996 72.8993 14.0123L71.6716 10.5996H68.3567L73.0459 23.2691H76.6062L81.3204 10.5996H78.1041V10.5986Z" fill="black"/>
<path d="M87.4594 10.3035C83.7027 10.3035 81.1985 12.9552 81.1985 16.9324C81.1985 20.9834 83.7765 23.5614 87.5083 23.5614C90.553 23.5614 92.763 21.9159 93.4012 19.3379H90.4303C89.9636 20.4668 89.0062 21.1549 87.5332 21.1549C85.7411 21.1549 84.4646 20.1487 84.2432 17.8898H93.7204V17.1528C93.7204 13.1277 91.3379 10.3035 87.4594 10.3035ZM84.2671 15.7297C84.5614 13.6424 85.789 12.7099 87.4345 12.7099C89.2755 12.7099 90.3805 13.9376 90.6258 15.7297H84.2671Z" fill="black"/>
<path d="M98.5574 5.78687H95.4639V23.2682H98.5574V5.78687Z" fill="black"/>
<path d="M113.73 5.78687H106.045V23.2682H109.359V17.1549H113.729C117.756 17.1549 119.916 14.8472 119.916 11.4833C119.917 8.09458 117.757 5.78687 113.73 5.78687ZM113.584 14.3057H109.36V8.63414H113.584C115.523 8.63414 116.578 9.66534 116.578 11.4824C116.578 13.2994 115.522 14.3057 113.584 14.3057Z" fill="black"/>
<path d="M124.509 5.78687H121.415V23.2682H124.509V5.78687Z" fill="black"/>
<path d="M135.435 19.3389C134.968 20.4678 134.011 21.1559 132.538 21.1559C130.745 21.1559 129.469 20.1496 129.248 17.8908H138.725V17.1538C138.725 13.1268 136.343 10.3035 132.464 10.3035C128.707 10.3035 126.203 12.9552 126.203 16.9324C126.203 20.9834 128.781 23.5614 132.513 23.5614C135.557 23.5614 137.767 21.9159 138.406 19.3379H135.435V19.3389ZM132.439 12.7099C134.28 12.7099 135.385 13.9376 135.63 15.7297H129.272C129.567 13.6433 130.794 12.7099 132.439 12.7099Z" fill="black"/>
<path d="M138.209 23.2682H141.671L142.138 22.605C142.973 21.4262 143.807 20.1986 144.618 19.0208C143.511 19.0217 142.404 19.0217 141.298 19.0217L138.209 23.2682Z" fill="black"/>
<path d="M150.829 10.5986H147.367L146.704 11.5321C146.041 12.5144 145.329 13.5456 144.691 14.5279C144.027 13.5216 143.365 12.5393 142.652 11.5321L141.989 10.5986H138.454L141.705 15.101C142.675 16.4072 143.646 17.7135 144.616 19.0197C145.426 20.1985 146.236 21.4012 147.071 22.604L147.538 23.2671H151.073L146.359 16.7609L150.829 10.5986Z" fill="black"/>
<path d="M160.086 17.6943C160.086 19.9531 158.613 20.8866 157.262 20.8866C155.667 20.8866 154.881 20.1007 154.881 18.4801V10.5986H151.787V18.9957C151.787 22.0155 153.579 23.5623 156.206 23.5623C158.023 23.5623 159.349 22.6538 160.184 21.4261V23.2671H163.178V10.5977H160.085V17.6943H160.086Z" fill="black"/>
<path d="M171.65 15.7796L170.054 15.5342C168.679 15.2889 167.943 14.9209 167.943 13.9874C167.943 13.0789 168.655 12.5144 170.153 12.5144C171.749 12.5144 172.756 12.9811 172.829 14.6017H175.751C175.652 11.9988 174.057 10.3054 170.153 10.3054C166.764 10.3054 164.898 11.7545 164.898 14.136C164.898 16.2971 166.323 17.4998 169.048 17.9665L170.497 18.2119C172.412 18.531 172.977 18.9728 172.977 19.8813C172.977 20.8387 172.265 21.4032 170.473 21.4032C168.631 21.4032 167.821 20.8387 167.65 19.2421H164.63C164.827 22.3108 166.815 23.6122 170.424 23.6122C173.96 23.6122 176.047 22.1881 176.047 19.635C176.044 17.449 174.694 16.3191 171.65 15.7796Z" fill="black"/>
</svg>
