<svg width="48" height="44" viewBox="0 0 48 44" fill="none" xmlns="http://www.w3.org/2000/svg">
<path fill-rule="evenodd" clip-rule="evenodd" d="M45.9344 32.24L35.7024 28.9248C35.4584 28.841 35.202 28.7988 34.944 28.8H34.8L32.64 25.92C32.5101 25.7468 32.3156 25.6337 32.1008 25.6064C32.0671 25.6067 32.0334 25.6093 32 25.6144V25.6H31.2V23.0448C33.2171 21.4807 34.3982 19.0724 34.4 16.52V9.08004C34.3978 8.71865 34.371 8.35784 34.32 8.00005C35.3966 6.94785 36.0024 5.50535 36 4.00005V1.60005C35.9999 1.49585 35.979 1.39275 35.9384 1.29685L35.6 0.920049C35.48 0.844449 35.3418 0.802949 35.2 0.800049H19.2C16.1087 0.803549 13.6035 3.30875 13.6 6.40005V16.52C13.6018 19.0724 14.783 21.4807 16.8 23.0448V25.6H16V25.6144C15.9666 25.6093 15.9329 25.6066 15.8992 25.6064C15.6844 25.6337 15.4899 25.7468 15.36 25.92L13.2 28.8H13.056C12.8037 28.7982 12.5528 28.8382 12.3136 28.9184L2.01842 32.256C0.796925 32.7331 -0.00517486 33.9126 2.51337e-05 35.224V43.2C2.51337e-05 43.6418 0.358225 44 0.800025 44H47.2C47.6418 44 48 43.6418 48 43.2V35.224C48.0003 33.8962 47.1773 32.7073 45.9344 32.24ZM33.3184 29.4912L31.8576 27.54L25.2 32.8664L27.2328 34.9008L33.3184 29.4912ZM18.4 27.2952L24 31.7752L29.6 27.2952V24.0232C28.5107 24.5333 27.3228 24.7985 26.12 24.8H21.88C20.6772 24.7985 19.4893 24.5333 18.4 24.0232V27.2952ZM19.2 2.40005C16.992 2.40265 15.2026 4.19205 15.2 6.40005V8.00005H30.4C32.608 7.99745 34.3974 6.20805 34.4 4.00005V2.40005H19.2ZM15.2 9.60004V16.52C15.2044 20.2074 18.1926 23.1956 21.88 23.2H26.12C29.8074 23.1956 32.7956 20.2074 32.8 16.52V9.08004V9.05285C32.051 9.41244 31.2309 9.59944 30.4 9.60004H15.2ZM22.8 32.8664L16.1448 27.54L14.6792 29.4912L20.7648 34.9008L22.8 32.8664ZM1.60002 42.4H46.4V35.224C46.4027 34.5703 46.0031 33.9823 45.3944 33.744L35.1936 30.4408C35.1133 30.413 35.0289 30.3992 34.944 30.4H34.704L27.732 36.5976C27.4154 36.8793 26.934 36.8653 26.6344 36.5656L24 33.9312L21.3656 36.5656C21.066 36.8653 20.5846 36.8793 20.268 36.5976L13.296 30.4H13.056C12.9773 30.3988 12.899 30.4104 12.824 30.4344L2.56002 33.76C1.97262 34.008 1.59332 34.5864 1.60002 35.224V42.4Z" fill="#015EFF"/>
</svg>
