<svg width="48" height="44" viewBox="0 0 48 44" fill="none" xmlns="http://www.w3.org/2000/svg">
<path d="M47.1724 20.6178H36.5876V18.5737C36.5871 18.2751 36.4258 18 36.1655 17.8537L24.8276 11.4813V8.23714H27.0703V9.47025C27.0703 9.92728 27.4409 10.2978 27.8979 10.2978H34.6593C35.1163 10.2976 35.4867 9.92697 35.4866 9.46994C35.4866 9.37414 35.4698 9.27907 35.4372 9.18887L34.7586 7.26059L35.4455 5.37369C35.6009 4.94387 35.3785 4.46945 34.9487 4.31407C34.8586 4.28149 34.7635 4.26483 34.6676 4.26473H31.589V3.06473C31.589 2.6077 31.2184 2.23714 30.7614 2.23714H24.8276V1.22749C24.8276 0.770454 24.457 0.399902 24 0.399902C23.543 0.399902 23.1724 0.770454 23.1724 1.22749V11.4813L11.8345 17.8454C11.5742 17.9917 11.4129 18.2669 11.4124 18.5654V20.6096H0.827586C0.370552 20.6096 0 20.9801 0 21.4371V43.0868C0 43.5438 0.370552 43.9144 0.827586 43.9144H47.1724C47.6294 43.9144 48 43.5438 48 43.0868V21.4454C48 20.9884 47.6294 20.6178 47.1724 20.6178ZM31.589 7.40956L31.5559 7.37645V5.95301H33.4428L33.1035 7.01232C33.0357 7.19666 33.0357 7.39901 33.1035 7.58335L33.4924 8.64266H28.7255V8.23714H30.7614C31.2184 8.23714 31.589 7.86659 31.589 7.40956ZM24.8276 3.89232H29.9338V5.12542V6.58197H24.8276V3.89232ZM11.4124 42.2592H1.65517V22.273H11.4124V42.2592ZM23.1724 42.2592H18.8276V32.8082H23.1724V42.2592ZM29.1724 42.2592H24.8276V32.8082H29.1724V42.2592ZM34.9655 42.2592H30.8276V31.9806C30.8276 31.5236 30.457 31.153 30 31.153H18C17.543 31.153 17.1724 31.5236 17.1724 31.9806V42.2592H13.0345V19.0868L24 12.913L34.9324 19.0537L34.9655 21.4371V42.2592ZM46.3448 42.2592H36.5876V22.273H46.3448V42.2592Z" fill="#015EFF"/>
<path d="M24.0001 15.4453C22.0836 15.4499 20.5325 17.0047 20.5325 18.9212C20.537 20.8363 22.0932 22.385 24.0083 22.3805C25.9235 22.3759 27.4722 20.8198 27.4676 18.9046C27.4631 16.9928 25.9119 15.4453 24.0001 15.4453ZM24.0001 20.7253C22.9991 20.7208 22.1914 19.9056 22.1959 18.9046C22.2005 17.9102 23.0055 17.105 24.0001 17.1005C25.0024 17.105 25.8125 17.9189 25.8125 18.9212H25.8207C25.8162 19.9221 25.001 20.7299 24.0001 20.7253Z" fill="#015EFF"/>
<path d="M5.30483 24.0938H3.64966V27.4041H5.30483V24.0938Z" fill="#015EFF"/>
<path d="M9.38479 24.0938H7.72961V27.4041H9.38479V24.0938Z" fill="#015EFF"/>
<path d="M18.8606 24.0938H15.5503V25.7489H18.8606V24.0938Z" fill="#015EFF"/>
<path d="M25.6552 24.0938H22.3448V25.7489H25.6552V24.0938Z" fill="#015EFF"/>
<path d="M32.4496 24.0938H29.1393V25.7489H32.4496V24.0938Z" fill="#015EFF"/>
<path d="M18.8606 27.9503H15.5503V29.6055H18.8606V27.9503Z" fill="#015EFF"/>
<path d="M25.6552 27.9503H22.3448V29.6055H25.6552V27.9503Z" fill="#015EFF"/>
<path d="M32.4496 27.9503H29.1393V29.6055H32.4496V27.9503Z" fill="#015EFF"/>
<path d="M5.30483 30.6068H3.64966V33.9172H5.30483V30.6068Z" fill="#015EFF"/>
<path d="M9.38479 30.6068H7.72961V33.9172H9.38479V30.6068Z" fill="#015EFF"/>
<path d="M5.30483 37.1282H3.64966V40.4385H5.30483V37.1282Z" fill="#015EFF"/>
<path d="M9.38479 37.1282H7.72961V40.4385H9.38479V37.1282Z" fill="#015EFF"/>
<path d="M40.2704 24.0938H38.6152V27.4041H40.2704V24.0938Z" fill="#015EFF"/>
<path d="M44.3504 24.0938H42.6952V27.4041H44.3504V24.0938Z" fill="#015EFF"/>
<path d="M40.2704 30.6068H38.6152V33.9172H40.2704V30.6068Z" fill="#015EFF"/>
<path d="M44.3504 30.6068H42.6952V33.9172H44.3504V30.6068Z" fill="#015EFF"/>
<path d="M40.2704 37.1282H38.6152V40.4385H40.2704V37.1282Z" fill="#015EFF"/>
<path d="M44.3504 37.1282H42.6952V40.4385H44.3504V37.1282Z" fill="#015EFF"/>
</svg>
