<svg width="12" height="20" viewBox="0 0 12 20" fill="none" xmlns="http://www.w3.org/2000/svg">
<path fill-rule="evenodd" clip-rule="evenodd" d="M9.6 1.2H2.4C2.08174 1.2 1.77652 1.32643 1.55147 1.55147C1.32643 1.77652 1.2 2.08174 1.2 2.4V16.8C1.2 17.1183 1.32643 17.4235 1.55147 17.6485C1.77652 17.8736 2.08174 18 2.4 18H9.6C9.91826 18 10.2235 17.8736 10.4485 17.6485C10.6736 17.4235 10.8 17.1183 10.8 16.8V2.4C10.8 2.08174 10.6736 1.77652 10.4485 1.55147C10.2235 1.32643 9.91826 1.2 9.6 1.2ZM2.4 0C1.76348 0 1.15303 0.252856 0.702944 0.702944C0.252856 1.15303 0 1.76348 0 2.4V16.8C0 17.4365 0.252856 18.047 0.702944 18.4971C1.15303 18.9471 1.76348 19.2 2.4 19.2H9.6C10.2365 19.2 10.847 18.9471 11.2971 18.4971C11.7471 18.047 12 17.4365 12 16.8V2.4C12 1.76348 11.7471 1.15303 11.2971 0.702944C10.847 0.252856 10.2365 0 9.6 0L2.4 0Z" fill="#4A4B65"/>
<path fill-rule="evenodd" clip-rule="evenodd" d="M6.00005 16.8C6.31831 16.8 6.62353 16.6736 6.84858 16.4486C7.07362 16.2235 7.20005 15.9183 7.20005 15.6C7.20005 15.2818 7.07362 14.9765 6.84858 14.7515C6.62353 14.5265 6.31831 14.4 6.00005 14.4C5.68179 14.4 5.37656 14.5265 5.15152 14.7515C4.92648 14.9765 4.80005 15.2818 4.80005 15.6C4.80005 15.9183 4.92648 16.2235 5.15152 16.4486C5.37656 16.6736 5.68179 16.8 6.00005 16.8Z" fill="#4A4B65"/>
</svg>
