<svg width="14" height="19" viewBox="0 0 14 19" fill="none" xmlns="http://www.w3.org/2000/svg">
<path d="M6.52556 13.1067C4.35449 13.1067 2.58822 11.2066 2.58822 8.85233H3.80596C3.80596 10.5571 5.02594 11.8904 6.52556 11.8904C8.02518 11.8904 9.2452 10.5571 9.2452 8.85233H10.4629C10.4629 11.2066 8.69664 13.1067 6.52556 13.1067Z" fill="#4A4B65"/>
<path d="M12.7314 6.39476V2.56078H11.5144V6.43665C11.3115 6.62235 11.1543 6.90601 11.1543 7.22406C11.1543 7.78346 11.6156 8.2369 12.1749 8.2369C12.7341 8.2369 13.1752 7.78346 13.1752 7.22406C13.1752 6.881 13.0154 6.57798 12.7314 6.39476Z" fill="#4A4B65"/>
<path d="M12.3877 2.06072L6.7807 0.0362089C6.64336 -0.0133616 6.49262 -0.0120219 6.35613 0.0401469L1.05878 2.06462C0.549718 2.25921 0.537335 3.00561 1.04766 3.20068L2.46738 3.74754V6.67253C2.46738 6.90077 2.60647 7.10985 2.80991 7.21386C5.12145 8.39601 7.93483 8.39621 10.2467 7.21386C10.4502 7.10985 10.5812 6.90077 10.5812 6.67253V3.85533L12.3855 3.20462C12.9136 3.01393 12.9076 2.24841 12.3877 2.06072ZM6.57974 1.25704L10.3896 2.63267L6.57974 4.00827L2.98022 2.63263L6.57974 1.25704ZM9.36413 6.28964C7.53851 7.09073 5.4695 7.09073 3.68447 6.28964V4.21292L6.34468 5.2252C6.48941 5.27741 6.62797 5.27871 6.77356 5.22914L9.36413 4.29501V6.28964Z" fill="#4A4B65"/>
<path d="M11.5674 19H1.37937C1.04175 19 0.763412 18.7241 0.763412 18.3883V16.5714C0.763412 14.671 2.31946 13.1249 4.22925 13.1249C4.40508 13.1249 4.57356 13.2002 4.68959 13.3316L6.39452 15.2613L8.24832 13.3296C8.36041 13.1988 8.52755 13.1143 8.71386 13.1143H8.7152H8.71621C10.6256 13.1143 12.1633 14.6677 12.1633 16.5714V18.3882C12.1633 18.7241 11.905 19 11.5674 19ZM1.98051 17.7823H10.9463V16.5714C10.9463 15.4217 10.0778 14.4718 8.9585 14.3475L6.81581 16.5814C6.57388 16.8332 6.14744 16.825 5.91586 16.5628L3.96284 14.3566C2.85073 14.4866 1.98055 15.4303 1.98055 16.5714V17.7823H1.98051Z" fill="#4A4B65"/>
</svg>
