<svg width="50" height="50" viewBox="0 0 50 50" fill="none" xmlns="http://www.w3.org/2000/svg">
<path d="M37.7604 24.0885V44.1406C37.7604 44.644 37.3523 45.0521 36.8489 45.0521H16.7969C16.2935 45.0521 15.8854 44.644 15.8854 44.1406V34.1146H14.0625V44.1406C14.0625 45.6508 15.2867 46.875 16.7969 46.875H36.849C38.3591 46.875 39.5834 45.6508 39.5834 44.1406V24.0885H37.7604Z" fill="#015EFF"/>
<path d="M20.4427 27.7344H12.2396C8.71774 27.7389 5.8639 30.5927 5.85938 34.1146H7.68226C7.68525 31.5989 9.7239 29.5603 12.2395 29.5573H20.4426C21.4494 29.5573 22.2655 30.3735 22.2655 31.3802C22.2655 32.387 21.4494 33.2031 20.4426 33.2031H12.2395V35.026H20.4426C22.4562 35.026 24.0885 33.3937 24.0885 31.3801C24.0885 29.3666 22.4563 27.7344 20.4427 27.7344Z" fill="#015EFF"/>
<path d="M4.03649 30.4688C3.53311 30.4688 3.125 30.8769 3.125 31.3802V32.2917H7.68226V30.4688H4.03649Z" fill="#015EFF"/>
<path d="M12.2396 43.2291C9.7239 43.2262 7.68534 41.1876 7.68226 38.6719H5.85938C5.8639 42.1937 8.71774 45.0476 12.2396 45.0521H14.974V43.2292H12.2396V43.2291Z" fill="#015EFF"/>
<path d="M3.125 40.4948V41.4062C3.125 41.9096 3.53311 42.3177 4.03649 42.3177H7.68235V40.4948H3.125V40.4948Z" fill="#015EFF"/>
<path d="M37.7604 4.94788H31.3802C29.3667 4.94788 27.7344 6.58021 27.7344 8.59374C27.7344 10.6073 29.3667 12.2396 31.3802 12.2396H39.5834V10.4166H31.3802C30.3735 10.4166 29.5573 9.6005 29.5573 8.59374C29.5573 7.58697 30.3735 6.77085 31.3802 6.77085H37.7605C40.2762 6.77384 42.3147 8.81249 42.3177 11.3281H44.1406C44.1361 7.80632 41.2823 4.9524 37.7604 4.94788Z" fill="#015EFF"/>
<path d="M45.9635 7.68225H42.3176V9.50514H46.875V8.59374C46.875 8.09036 46.4669 7.68225 45.9635 7.68225Z" fill="#015EFF"/>
<path d="M42.3176 15.8854C42.3146 18.4011 40.276 20.4397 37.7604 20.4426H31.3801V22.2656H37.7604C41.2822 22.2611 44.1361 19.4073 44.1406 15.8854H42.3176Z" fill="#015EFF"/>
<path d="M42.3176 17.7083V19.5312H45.9635C46.4669 19.5312 46.875 19.1231 46.875 18.6197V17.7083H42.3176V17.7083Z" fill="#015EFF"/>
<path d="M35.5246 11.0775L33.7709 11.5742C34.4842 14.0949 34.0758 16.8007 32.6503 18.9986C29.9173 23.2121 24.2861 24.4125 20.0725 21.6796C15.8589 18.9467 14.6585 13.3155 17.3914 9.10183C20.1243 4.88824 25.7555 3.68785 29.9692 6.42078L30.9645 4.8932C29.1906 3.73964 27.12 3.12534 25.0038 3.125C18.9632 3.12397 14.0655 8.01996 14.0645 14.0606C14.0634 20.1013 18.9594 24.999 25 25C26.0044 24.9993 27.0039 24.8604 27.9704 24.5871C33.787 22.9426 37.1692 16.8941 35.5246 11.0775Z" fill="#015EFF"/>
<path d="M23.177 11.3281H26.8229V9.50525H23.177C21.6669 9.50525 20.4426 10.7295 20.4426 12.2396C20.4426 13.7498 21.6669 14.974 23.177 14.974H26.8229V13.1511H23.177C22.6736 13.1511 22.2655 12.743 22.2655 12.2396C22.2655 11.7362 22.6736 11.3281 23.177 11.3281Z" fill="#015EFF"/>
<path d="M26.8229 13.151H23.177V14.9739H26.8229C27.3262 14.9739 27.7344 15.382 27.7344 15.8854C27.7344 16.3888 27.3262 16.7969 26.8229 16.7969H23.177C22.6736 16.7969 22.2655 16.3888 22.2655 15.8854H20.4426C20.4426 17.3955 21.6669 18.6198 23.177 18.6198H26.8229C28.333 18.6198 29.5572 17.3955 29.5572 15.8854C29.5572 14.3752 28.333 13.151 26.8229 13.151Z" fill="#015EFF"/>
<path d="M25.9115 17.7084H24.0886V20.4427H25.9115V17.7084Z" fill="#015EFF"/>
<path d="M25.9115 7.68225H24.0886V10.4166H25.9115V7.68225Z" fill="#015EFF"/>
<path d="M16.7969 22.2656C15.2867 22.2656 14.0625 23.4899 14.0625 25V28.6459H15.8854V25C15.8854 24.4966 16.2935 24.0885 16.7969 24.0885H20.4427V22.2656H16.7969Z" fill="#015EFF"/>
<path d="M20.4428 23.1771H18.6199V28.6459H20.4428V23.1771Z" fill="#015EFF"/>
<path d="M24.9999 24.0885V30.4687H23.177V32.2916H25.9114C26.4148 32.2916 26.8229 31.8835 26.8229 31.3801V24.0885H24.9999Z" fill="#015EFF"/>
<path d="M35.9375 41.4062H30.4688V43.2291H35.9375V41.4062Z" fill="#015EFF"/>
<path d="M35.9375 37.7604H30.4688V39.5833H35.9375V37.7604Z" fill="#015EFF"/>
</svg>
