<svg width="30" height="30" viewBox="0 0 30 30" fill="none" xmlns="http://www.w3.org/2000/svg">
<path d="M14.875 6.375C15.5549 6.375 16.2195 6.57661 16.7848 6.95432C17.3501 7.33204 17.7907 7.8689 18.0508 8.49703C18.311 9.12515 18.3791 9.81631 18.2465 10.4831C18.1138 11.1499 17.7864 11.7624 17.3057 12.2432C16.8249 12.7239 16.2124 13.0513 15.5456 13.184C14.8788 13.3166 14.1876 13.2485 13.5595 12.9883C12.9314 12.7282 12.3945 12.2876 12.0168 11.7223C11.6391 11.157 11.4375 10.4924 11.4375 9.8125C11.4375 8.90082 11.7997 8.02648 12.4443 7.38182C13.089 6.73716 13.9633 6.375 14.875 6.375ZM14.875 5C13.9232 5 12.9927 5.28225 12.2013 5.81105C11.4099 6.33986 10.7931 7.09147 10.4288 7.97084C10.0646 8.85021 9.96928 9.81784 10.155 10.7514C10.3407 11.6849 10.799 12.5424 11.4721 13.2155C12.1451 13.8885 13.0026 14.3468 13.9361 14.5325C14.8697 14.7182 15.8373 14.6229 16.7167 14.2587C17.596 13.8944 18.3476 13.2776 18.8765 12.4862C19.4053 11.6948 19.6875 10.7643 19.6875 9.8125C19.6875 8.53615 19.1805 7.31207 18.278 6.40955C17.3754 5.50703 16.1514 5 14.875 5Z" fill="#015EFF"/>
<path d="M21.75 24.25H20.375V20.8125C20.375 20.3611 20.2861 19.9141 20.1133 19.497C19.9406 19.08 19.6874 18.701 19.3682 18.3818C19.049 18.0626 18.67 17.8094 18.253 17.6367C17.8359 17.4639 17.3889 17.375 16.9375 17.375H12.8125C11.9008 17.375 11.0265 17.7372 10.3818 18.3818C9.73716 19.0265 9.375 19.9008 9.375 20.8125V24.25H8V20.8125C8 19.5361 8.50703 18.3121 9.40955 17.4095C10.3121 16.507 11.5361 16 12.8125 16H16.9375C18.2139 16 19.4379 16.507 20.3405 17.4095C21.243 18.3121 21.75 19.5361 21.75 20.8125V24.25Z" fill="#015EFF"/>
</svg>
