<svg width="14" height="20" viewBox="0 0 14 20" fill="none" xmlns="http://www.w3.org/2000/svg">
<path d="M6.875 1.375C7.55488 1.375 8.21948 1.57661 8.78478 1.95432C9.35007 2.33204 9.79066 2.8689 10.0508 3.49703C10.311 4.12515 10.3791 4.81631 10.2465 5.48312C10.1138 6.14993 9.78643 6.76244 9.30568 7.24318C8.82494 7.72392 8.21244 8.05131 7.54563 8.18395C6.87882 8.31659 6.18765 8.24851 5.55953 7.98834C4.93141 7.72816 4.39454 7.28757 4.01683 6.72227C3.63911 6.15698 3.4375 5.49237 3.4375 4.8125C3.4375 3.90082 3.79967 3.02648 4.44432 2.38182C5.08898 1.73716 5.96332 1.375 6.875 1.375ZM6.875 0C5.92318 0 4.99273 0.282248 4.20132 0.811053C3.40991 1.33986 2.79308 2.09147 2.42883 2.97084C2.06459 3.85021 1.96928 4.81784 2.15497 5.75137C2.34066 6.68491 2.79901 7.54241 3.47205 8.21545C4.14509 8.88849 5.0026 9.34684 5.93613 9.53253C6.86966 9.71822 7.8373 9.62292 8.71667 9.25867C9.59604 8.89442 10.3476 8.27759 10.8765 7.48618C11.4053 6.69477 11.6875 5.76432 11.6875 4.8125C11.6875 3.53615 11.1805 2.31207 10.278 1.40955C9.37544 0.50703 8.15136 0 6.875 0Z" fill="#015EFF"/>
<path d="M13.75 19.25H12.375V15.8125C12.375 15.3611 12.2861 14.9141 12.1133 14.497C11.9406 14.08 11.6874 13.701 11.3682 13.3818C11.049 13.0626 10.67 12.8094 10.253 12.6367C9.83592 12.4639 9.38892 12.375 8.9375 12.375H4.8125C3.90082 12.375 3.02648 12.7372 2.38182 13.3818C1.73716 14.0265 1.375 14.9008 1.375 15.8125V19.25H0V15.8125C0 14.5361 0.50703 13.3121 1.40955 12.4095C2.31207 11.507 3.53615 11 4.8125 11H8.9375C10.2139 11 11.4379 11.507 12.3405 12.4095C13.243 13.3121 13.75 14.5361 13.75 15.8125V19.25Z" fill="#015EFF"/>
</svg>
