<svg width="15" height="15" viewBox="0 0 15 15" fill="none" xmlns="http://www.w3.org/2000/svg">
<path d="M14.463 2.14404H10.7133V0.537049C10.7135 0.451875 10.6934 0.367876 10.6547 0.292022C10.6159 0.216168 10.5597 0.150646 10.4905 0.100892C10.4214 0.051138 10.3414 0.0185867 10.2572 0.00593885C10.1729 -0.00670904 10.0869 0.000911117 10.0062 0.0281672L3.66395 2.14404H1.33916C0.983994 2.14404 0.643373 2.28513 0.392232 2.53627C0.14109 2.78742 0 3.12804 0 3.48321V13.6608C0 14.016 0.14109 14.3566 0.392232 14.6078C0.643373 14.8589 0.983994 15 1.33916 15H13.3916C13.5337 15 13.6699 14.9436 13.7704 14.8431C13.8709 14.7427 13.9273 14.6064 13.9273 14.4643V13.393H14.463C14.605 13.393 14.7413 13.3366 14.8417 13.2361C14.9422 13.1357 14.9986 12.9994 14.9986 12.8573V2.67971C14.9986 2.53764 14.9422 2.40139 14.8417 2.30094C14.7413 2.20048 14.605 2.14404 14.463 2.14404ZM9.64197 1.28162V2.14404H7.04935L9.64197 1.28162ZM12.856 13.9287H1.33916C1.26813 13.9287 1.2 13.9005 1.14978 13.8502C1.09955 13.8 1.07133 13.7319 1.07133 13.6608C1.07133 13.5898 1.09955 13.5217 1.14978 13.4715C1.2 13.4212 1.26813 13.393 1.33916 13.393H12.856V13.9287ZM13.3916 12.3217H1.33916C1.2501 12.3129 1.16039 12.3129 1.07133 12.3217V3.48321C1.07133 3.41217 1.09955 3.34405 1.14978 3.29382C1.2 3.24359 1.26813 3.21537 1.33916 3.21537H13.9273V5.8937H9.1063C8.96424 5.8937 8.82799 5.95013 8.72753 6.05059C8.62707 6.15105 8.57064 6.28729 8.57064 6.42936V9.64335C8.57064 9.78542 8.62707 9.92167 8.72753 10.0221C8.82799 10.1226 8.96424 10.179 9.1063 10.179H13.9273V12.3217H13.3916ZM13.9273 9.10769H9.64197V6.96503H13.9273V9.10769Z" fill="#015EFF"/>
</svg>
