<svg width="50" height="50" viewBox="0 0 50 50" fill="none" xmlns="http://www.w3.org/2000/svg">
<path d="M44.6371 27.1012H42.9281V22.016C42.9281 20.5404 41.8696 19.3072 40.4717 19.035L41.8924 17.6154C42.3833 17.1249 42.6537 16.4726 42.6537 15.7788C42.6537 15.085 42.3833 14.4327 41.8924 13.9422L31.8263 3.88419C30.8133 2.87194 29.1651 2.87194 28.152 3.88419L13.0452 18.979H7.41374C5.73821 18.979 4.375 20.3414 4.375 22.016V43.8381C4.375 45.5126 5.73812 46.875 7.41374 46.875H39.8893C41.5649 46.875 42.9281 45.5126 42.9281 43.8381V38.7528H44.6371C45.109 38.7528 45.4916 38.3703 45.4916 37.8983V27.9557C45.4916 27.4838 45.109 27.1012 44.6371 27.1012ZM29.36 5.09316C29.7068 4.74657 30.2714 4.74657 30.6183 5.09316L40.6844 15.1511C40.8522 15.3188 40.9446 15.5417 40.9446 15.7788C40.9446 16.0158 40.8522 16.2388 40.6844 16.4064L38.1098 18.9789H35.1148L36.205 17.8896C36.3654 17.7294 36.4555 17.5119 36.4555 17.2851C36.4555 17.0583 36.3654 16.8409 36.205 16.6806C35.9639 16.4397 35.8311 16.1193 35.8311 15.7787C35.8311 15.438 35.9639 15.1176 36.205 14.8767C36.3654 14.7164 36.4555 14.499 36.4555 14.2722C36.4555 14.0455 36.3654 13.828 36.205 13.6677L32.1009 9.56689C31.7674 9.23346 31.2267 9.23346 30.8929 9.56689C30.3947 10.0646 29.5839 10.0648 29.0857 9.56689C28.7521 9.23354 28.2114 9.23354 27.8777 9.56689L18.4581 18.979H15.4631L29.36 5.09316ZM34.4795 17.1979L32.697 18.979H20.876L28.5696 11.2916C29.4522 11.7677 30.526 11.7678 31.4088 11.2916L34.4795 14.3598C34.2459 14.7905 34.1219 15.2751 34.1219 15.7789C34.1219 16.2825 34.2458 16.7671 34.4795 17.1979ZM6.08412 43.838V22.016C6.08412 21.2837 6.68057 20.6881 7.41383 20.6881H9.66103V45.166H7.41374C6.68057 45.1659 6.08412 44.5702 6.08412 43.838ZM41.219 43.838C41.219 44.5702 40.6226 45.1659 39.8893 45.1659H11.37V20.6881H39.8893C40.6225 20.6881 41.219 21.2837 41.219 22.016V27.1012H34.7412C31.5288 27.1012 28.9154 29.7146 28.9154 32.927C28.9154 36.1393 31.5288 38.7528 34.7412 38.7528H41.219V43.838ZM43.7826 37.0437H34.7412C32.4713 37.0437 30.6244 35.1969 30.6244 32.9269C30.6244 30.6569 32.4712 28.8101 34.7412 28.8101H43.7826V37.0437Z" fill="#015EFF"/>
<path d="M32.4709 32.9271C32.4709 34.4926 33.7454 35.7664 35.3118 35.7664C36.8783 35.7664 38.1527 34.4926 38.1527 32.9271C38.1527 31.3614 36.8783 30.0878 35.3118 30.0878C33.7454 30.0877 32.4709 31.3614 32.4709 32.9271ZM35.3118 31.7967C35.9359 31.7967 36.4437 32.3038 36.4437 32.927C36.4437 33.5503 35.9359 34.0572 35.3118 34.0572C34.6876 34.0572 34.18 33.5502 34.18 32.927C34.18 32.3038 34.6876 31.7967 35.3118 31.7967Z" fill="#015EFF"/>
</svg>
