<svg width="19" height="19" viewBox="0 0 19 19" fill="none" xmlns="http://www.w3.org/2000/svg">
<path d="M9.5 0C4.25331 0 0 4.25331 0 9.5C0 14.7467 4.25331 19 9.5 19C14.7467 19 19 14.7467 19 9.5C19 4.25331 14.7467 0 9.5 0ZM6.29561 17.0868C4.28486 16.2353 2.6941 14.6208 1.87247 12.5976C1.05085 10.5745 1.06549 8.30798 1.91318 6.29561C1.95356 6.20052 1.99579 6.10623 2.03985 6.01279L4.11667 7.88207V10.3851L7.16854 13.6167H8.70833V15.5581L6.84586 17.2964C6.66056 17.2332 6.47714 17.1634 6.29561 17.0868ZM15.3218 15.3218C14.5583 16.0877 13.6508 16.695 12.6517 17.1089C11.6526 17.5227 10.5815 17.7349 9.5 17.7333C9.10636 17.7334 8.71321 17.7055 8.3235 17.6499L9.975 16.1086V12.35H7.71479L5.38333 9.88154V7.31793L2.67979 4.8849C3.57429 3.56735 4.82962 2.53559 6.29545 1.91318C7.54976 1.38258 8.91619 1.17175 10.2721 1.2996C11.628 1.42746 12.9309 1.89 14.064 2.64571L12.2604 4.96458L12.8735 6.49745L12.4585 6.91248L9.34654 6.29011L7.6 7.6V11.0833H14.5667L16.5595 13.7404C16.213 14.316 15.7973 14.8471 15.3218 15.3218ZM17.7333 9.5C17.7352 10.5129 17.549 11.5174 17.1842 12.4623L15.2 9.81667H8.86667V8.23333L9.65347 7.64322L12.8748 8.28752L14.3598 6.80255L13.7063 5.16875L15.06 3.428C15.1487 3.50938 15.2359 3.59277 15.3217 3.67816C16.0876 4.44171 16.6949 5.34915 17.1088 6.34829C17.5227 7.34742 17.7349 8.41853 17.7333 9.5Z" fill="#015EFF"/>
</svg>
